<svg xmlns="http://www.w3.org/2000/svg" version="1.1" xmlns:xlink="http://www.w3.org/1999/xlink" xmlns:svgjs="http://svgjs.dev/svgjs" width="1000" height="1000" viewBox="0 0 1000 1000"><g transform="matrix(1,0,0,1,-0.49999999999994316,-0.49999999999994316)"><svg viewBox="0 0 280 280" data-background-color="#ca3433" preserveAspectRatio="xMidYMid meet" height="1000" width="1000" xmlns="http://www.w3.org/2000/svg" xmlns:xlink="http://www.w3.org/1999/xlink"><defs></defs><g id="tight-bounds" transform="matrix(1,0,0,1,0.13999999999998636,0.13999999999998636)"><svg viewBox="0 0 279.72 279.72" height="279.72" width="279.72"><g><svg viewBox="0 0 279.72 279.72" height="279.72" width="279.72"><g><svg viewBox="0 0 279.72 279.72" height="279.72" width="279.72"><g><svg viewBox="0 0 279.72 279.72" height="279.72" width="279.72"><g><svg viewBox="0 0 279.72 279.72" height="279.72" width="279.72"><g transform="matrix(1,0,0,1,57.81093311080525,57.44670465270789)"><svg viewBox="0 0 164.09813377838952 164.82659069458424" height="164.82659069458424" width="164.09813377838952"><g><circle r="82" cx="82.41329534729213" cy="82.41329534729213" fill="#ffffff" data-fill-palette-color="accent"></circle></g></svg></g><path d="M24.94 104.395l-1.285 3.529-23.655-19.145 1.489-4.089 30.349 0.756-1.285 3.529-7.762-0.242-3.921 10.77zM4.811 88.286l11.743 9.399 3.291-9.039zM82.397 31.992v0l-1.538-3.381c1.279 0.194 2.49 0.239 3.633 0.133 1.145-0.099 2.183-0.36 3.113-0.783v0c1.461-0.665 2.304-1.568 2.531-2.712 0.226-1.143-0.016-2.495-0.726-4.055v0l-8.463-18.598 3.259-1.483 8.462 18.598c0.866 1.904 1.281 3.585 1.243 5.041-0.035 1.448-0.459 2.692-1.274 3.734-0.809 1.039-1.937 1.887-3.385 2.546v0c-1.124 0.511-2.259 0.824-3.405 0.939-1.149 0.108-2.299 0.115-3.45 0.021zM175.562 26.036l-3.486-1.396 19.888-23.034 4.04 1.618-1.722 30.31-3.486-1.396 0.488-7.751-10.639-4.262zM192.303 6.43l-9.768 11.438 8.93 3.577zM258.867 90.347l12.153-15.66 1.544 4.025-10.09 12.708-0.331-0.864 16.051 2.834 1.526 3.977-19.556-3.639-11.037 4.234-1.297-3.381zM10.709 193.228v0l16.364-17.735 0.192 0.455-13.221 4.074c-1.488 0.478-2.59 0.927-3.307 1.349-0.713 0.427-1.138 0.911-1.274 1.452-0.137 0.541-0.086 1.201 0.152 1.979v0c-0.252 0.196-0.551 0.388-0.895 0.578-0.344 0.19-0.63 0.333-0.858 0.428v0c-0.2-0.615-0.458-1.318-0.776-2.107-0.318-0.789-0.606-1.49-0.864-2.103v0c-0.162-0.386-0.355-0.825-0.578-1.319-0.226-0.5-0.445-0.985-0.657-1.454-0.212-0.469-0.402-0.865-0.568-1.19v0c0.228-0.096 0.527-0.207 0.898-0.333 0.371-0.127 0.72-0.199 1.047-0.218v0c0.358 0.638 0.772 1.1 1.242 1.386 0.47 0.286 1.146 0.38 2.029 0.284 0.88-0.103 2.144-0.423 3.793-0.962v0l13.53-4.294c1.005-0.334 1.76-0.682 2.263-1.042 0.494-0.364 0.774-0.795 0.84-1.292 0.06-0.494-0.062-1.101-0.366-1.822v0c0.242-0.221 0.525-0.415 0.85-0.581 0.324-0.166 0.626-0.308 0.903-0.425v0c0.095 0.295 0.217 0.638 0.367 1.029 0.15 0.391 0.305 0.794 0.465 1.21 0.16 0.416 0.311 0.792 0.453 1.127v0c0.152 0.36 0.315 0.731 0.49 1.111 0.175 0.38 0.346 0.751 0.513 1.112 0.17 0.368 0.333 0.701 0.489 1v0l-17.583 18.896-0.392-0.929 25.253-0.692c0.113 0.339 0.247 0.711 0.402 1.115 0.155 0.404 0.31 0.807 0.466 1.21 0.155 0.404 0.303 0.773 0.444 1.108v0c0.152 0.36 0.313 0.724 0.482 1.092 0.17 0.368 0.34 0.735 0.51 1.103 0.17 0.368 0.338 0.714 0.504 1.038v0c-0.303 0.128-0.622 0.247-0.955 0.357-0.333 0.111-0.658 0.188-0.974 0.232v0c-0.402-0.954-0.978-1.553-1.728-1.795-0.756-0.24-1.88 0.059-3.373 0.896v0l-13.017 7.025c-1.242 0.709-2.17 1.305-2.786 1.788-0.606 0.486-0.967 0.973-1.081 1.46-0.115 0.487-0.081 1.054 0.101 1.699v0c-0.252 0.196-0.541 0.377-0.865 0.543-0.315 0.17-0.628 0.32-0.938 0.451v0c-0.095-0.295-0.225-0.657-0.39-1.086-0.166-0.429-0.346-0.892-0.541-1.391-0.192-0.492-0.383-0.962-0.573-1.411-0.189-0.449-0.36-0.853-0.511-1.214v0c-0.205-0.487-0.442-1.031-0.71-1.632-0.266-0.595-0.527-1.181-0.785-1.757-0.255-0.57-0.482-1.055-0.68-1.455v0c0.284-0.12 0.599-0.23 0.944-0.331 0.351-0.103 0.685-0.177 1.001-0.22v0c0.447 0.779 0.873 1.303 1.276 1.572 0.397 0.272 0.925 0.306 1.584 0.103 0.659-0.203 1.54-0.612 2.644-1.225v0l13.142-7.257 0.208 0.493-23.557 0.212c-0.208-0.21-0.396-0.462-0.564-0.756-0.175-0.291-0.333-0.604-0.474-0.939zM39.816 220.955l2.959 3.521-3.071 2.582c-1.108 0.931-1.874 1.678-2.297 2.24-0.428 0.557-0.579 1.091-0.453 1.604 0.121 0.517 0.444 1.195 0.97 2.033v0c-0.145 0.265-0.33 0.519-0.555 0.763-0.231 0.248-0.496 0.497-0.795 0.749v0c-0.588-0.742-1.203-1.516-1.844-2.321-0.645-0.81-1.255-1.557-1.829-2.24v0c-0.45-0.536-0.93-1.096-1.439-1.68-0.514-0.59-1-1.158-1.459-1.704-0.459-0.546-0.842-0.981-1.15-1.304v0c0.278-0.234 0.559-0.443 0.843-0.628 0.283-0.175 0.558-0.322 0.827-0.44v0c0.764 0.738 1.388 1.23 1.873 1.477 0.484 0.256 1.021 0.235 1.612-0.065 0.585-0.295 1.39-0.873 2.414-1.733v0zM54.847 221.6l-13.746 3.41-2.099-2.497 6.318-15.028c0.401-0.919 0.599-1.659 0.594-2.22 0-0.565-0.223-1.134-0.67-1.708v0c0.187-0.3 0.395-0.565 0.624-0.793 0.229-0.228 0.47-0.449 0.721-0.661v0c0.265 0.315 0.569 0.687 0.911 1.116 0.338 0.424 0.685 0.858 1.041 1.302 0.36 0.45 0.71 0.877 1.051 1.282v0c0.34 0.404 0.748 0.89 1.224 1.457 0.477 0.567 0.948 1.117 1.413 1.648 0.47 0.537 0.858 0.968 1.166 1.291v0c-0.278 0.234-0.531 0.429-0.759 0.585-0.233 0.16-0.504 0.317-0.815 0.469v0c-0.768-0.743-1.388-1.006-1.859-0.789-0.472 0.217-0.969 0.926-1.491 2.128v0c-0.595 1.414-1.299 3.001-2.114 4.76-0.819 1.755-1.685 3.544-2.597 5.369v0l-0.186-0.221c2.014-0.6 3.887-1.126 5.621-1.579 1.724-0.454 3.265-0.849 4.623-1.185v0c1.521-0.365 2.415-0.789 2.68-1.272 0.27-0.478 0.107-1.179-0.489-2.101v0c0.204-0.279 0.407-0.539 0.607-0.78 0.196-0.236 0.433-0.471 0.711-0.705v0c0.319 0.422 0.729 0.942 1.231 1.559 0.501 0.618 0.957 1.171 1.368 1.659v0c0.415 0.494 0.833 0.98 1.254 1.46 0.425 0.485 0.81 0.91 1.152 1.275v0c-0.252 0.212-0.504 0.397-0.756 0.556-0.252 0.158-0.527 0.322-0.824 0.491v0c-0.572-0.424-1.322-0.667-2.252-0.728-0.92-0.06-2.138 0.09-3.653 0.45zM61.019 255.505v0c0.224-0.385 0.433-0.716 0.626-0.994 0.195-0.267 0.385-0.478 0.57-0.632v0c0.674 0.329 1.248 0.5 1.724 0.515 0.472 0.021 0.915-0.154 1.329-0.524 0.411-0.38 0.862-0.99 1.351-1.832v0l8.496-14.602c0.507-0.872 0.819-1.571 0.935-2.099 0.11-0.531 0.051-0.994-0.179-1.39-0.239-0.393-0.671-0.803-1.296-1.23v0c0.033-0.275 0.119-0.566 0.258-0.873 0.142-0.298 0.318-0.628 0.529-0.99v0c0.939 0.61 1.855 1.183 2.749 1.718 0.9 0.54 1.653 0.985 2.258 1.338v0c0.409 0.238 0.946 0.543 1.611 0.913 0.671 0.374 1.33 0.742 1.977 1.103 0.647 0.361 1.128 0.632 1.442 0.815v0c2.069 1.204 3.538 2.491 4.407 3.862 0.86 1.373 1.241 2.75 1.144 4.129-0.091 1.384-0.507 2.713-1.248 3.988v0c-0.842 1.447-1.956 2.639-3.344 3.577-1.384 0.933-2.926 1.448-4.625 1.547-1.696 0.092-3.472-0.401-5.328-1.481v0c-1.014-0.59-1.769-1.208-2.266-1.854v0c0.112-0.356 0.249-0.66 0.413-0.915 0.167-0.26 0.376-0.496 0.626-0.707v0c0.249 0.24 0.509 0.463 0.778 0.667 0.266 0.211 0.542 0.399 0.826 0.564v0c0.848 0.493 1.728 0.787 2.642 0.882 0.913 0.095 1.823-0.126 2.729-0.661 0.91-0.542 1.8-1.559 2.67-3.054v0c1.093-1.879 1.533-3.671 1.318-5.375-0.221-1.708-1.342-3.149-3.364-4.325v0c-0.29-0.169-0.619-0.328-0.984-0.478-0.366-0.149-0.879-0.317-1.54-0.503v0l0.84-0.297-10.1 17.359c-0.604 1.037-0.95 1.899-1.04 2.585-0.093 0.692 0.044 1.288 0.412 1.787 0.364 0.506 0.926 1.027 1.685 1.564v0c-0.056 0.261-0.156 0.54-0.297 0.838-0.145 0.304-0.323 0.637-0.534 0.999v0c-0.348-0.234-0.791-0.516-1.329-0.845-0.533-0.326-1.104-0.674-1.714-1.044-0.604-0.367-1.208-0.727-1.812-1.079v0c-0.605-0.352-1.254-0.722-1.949-1.11-0.689-0.385-1.333-0.744-1.933-1.077-0.6-0.333-1.087-0.593-1.463-0.779zM103.287 274.114v0c-2.694-0.73-4.875-1.978-6.542-3.745-1.674-1.768-2.782-3.87-3.323-6.304-0.543-2.428-0.45-4.986 0.278-7.675v0c0.569-2.099 1.427-3.902 2.575-5.41 1.15-1.515 2.496-2.72 4.039-3.617 1.543-0.896 3.217-1.459 5.02-1.688 1.812-0.234 3.661-0.095 5.547 0.416v0c2.635 0.714 4.805 1.924 6.511 3.629 1.705 1.706 2.856 3.752 3.453 6.138 0.597 2.386 0.52 4.966-0.232 7.74v0c-0.547 2.019-1.378 3.801-2.494 5.347-1.109 1.547-2.442 2.796-3.999 3.745-1.558 0.949-3.254 1.559-5.09 1.829-1.836 0.27-3.75 0.135-5.743-0.405zM104.644 272.137v0c1.668 0.452 3.217 0.36 4.648-0.276 1.432-0.642 2.692-1.712 3.779-3.207 1.081-1.498 1.902-3.283 2.464-5.355v0c0.64-2.363 0.813-4.626 0.518-6.789-0.295-2.162-0.995-4-2.098-5.514-1.112-1.509-2.581-2.512-4.409-3.007v0c-1.509-0.409-2.977-0.331-4.402 0.235-1.425 0.566-2.691 1.566-3.798 3.001-1.113 1.432-1.961 3.224-2.544 5.375v0c-0.459 1.695-0.699 3.378-0.718 5.05-0.02 1.672 0.202 3.228 0.665 4.668 0.463 1.44 1.179 2.665 2.149 3.674 0.968 1.016 2.217 1.731 3.746 2.145zM147.212 278.607v0c-0.509-0.894-0.94-1.652-1.296-2.273-0.355-0.621-0.673-1.225-0.952-1.813-0.286-0.581-0.614-1.192-0.983-1.833v0c-0.509-0.997-1.004-1.884-1.484-2.662-0.48-0.778-1.032-1.548-1.656-2.311-0.617-0.756-1.389-1.589-2.317-2.5v0l1.301 0.482c-0.754 0.034-1.43 0.054-2.027 0.059-0.604 0.005-1.197-0.003-1.78-0.025v0l0.022-2.171c0.419 0.051 0.783 0.089 1.092 0.113 0.302 0.025 0.621 0.036 0.957 0.033v0c1.427-0.012 2.714-0.24 3.863-0.682 1.155-0.442 2.072-1.112 2.75-2.01 0.671-0.898 1.001-2.056 0.988-3.476v0c-0.015-1.674-0.527-3.024-1.537-4.05-1.017-1.02-2.695-1.52-5.034-1.5v0c-0.583 0.005-1.114 0.037-1.594 0.097-0.473 0.059-0.973 0.159-1.5 0.301v0l0.2-0.671 0.182 20.834c0.009 1.001 0.101 1.783 0.278 2.343 0.169 0.554 0.451 0.932 0.843 1.135 0.393 0.209 0.926 0.338 1.598 0.387v0c0.085 0.253 0.142 0.558 0.173 0.914 0.031 0.363 0.048 0.727 0.051 1.091v0c-0.583-0.05-1.211-0.079-1.884-0.087-0.672-0.008-1.314-0.009-1.924-0.004-0.61 0.005-1.125 0.01-1.543 0.014v0c-0.782 0.007-1.677 0.022-2.685 0.044-1.001 0.022-1.851 0.064-2.551 0.125v0c-0.003-0.364 0.007-0.717 0.032-1.06 0.031-0.35 0.087-0.666 0.167-0.948v0c0.747-0.061 1.329-0.207 1.745-0.437 0.416-0.223 0.708-0.6 0.875-1.129 0.16-0.536 0.236-1.292 0.227-2.266v0l-0.148-16.893c-0.009-1.008-0.098-1.776-0.267-2.302-0.176-0.527-0.474-0.901-0.894-1.124-0.42-0.216-1.004-0.334-1.753-0.355v0c-0.085-0.308-0.146-0.637-0.183-0.986-0.03-0.35-0.047-0.675-0.05-0.977v0c0.48 0.023 1.228 0.037 2.244 0.042 1.015 0.005 2.054 0.003 3.117-0.007v0c1.084-0.009 2.246-0.033 3.487-0.072 1.241-0.038 2.489-0.063 3.745-0.073v0c2.174-0.019 3.947 0.278 5.317 0.889 1.377 0.619 2.396 1.461 3.057 2.525 0.668 1.071 1.008 2.289 1.02 3.654v0c0.012 1.365-0.293 2.595-0.915 3.692-0.615 1.089-1.485 1.995-2.61 2.718-1.126 0.716-2.452 1.236-3.978 1.558v0l0.324-0.507c0.788 0.72 1.456 1.414 2.004 2.081 0.555 0.66 1.12 1.441 1.698 2.341 0.577 0.907 1.277 2.053 2.098 3.439v0c0.543 0.942 1.04 1.682 1.491 2.22 0.451 0.545 0.962 0.938 1.533 1.18 0.572 0.249 1.334 0.396 2.288 0.443v0c0.003 0.364-0.011 0.703-0.043 1.019-0.025 0.323-0.077 0.652-0.156 0.989v0c-1.228 0.011-2.455 0.042-3.682 0.094-1.22 0.052-2.334 0.168-3.341 0.348zM165.466 276.196v0c-0.112-0.432-0.197-0.813-0.255-1.145-0.05-0.327-0.063-0.611-0.04-0.851v0c0.71-0.241 1.239-0.524 1.586-0.848 0.35-0.318 0.541-0.754 0.575-1.308 0.025-0.559-0.085-1.31-0.33-2.253v0l-4.245-16.351c-0.253-0.976-0.524-1.692-0.813-2.149-0.295-0.455-0.664-0.742-1.105-0.861-0.447-0.111-1.042-0.098-1.787 0.039v0c-0.17-0.218-0.314-0.485-0.431-0.802-0.109-0.312-0.216-0.67-0.322-1.076v0c0.498-0.101 1.064-0.227 1.699-0.377 0.641-0.152 1.311-0.312 2.012-0.48 0.707-0.169 1.386-0.339 2.036-0.507 0.644-0.167 1.222-0.317 1.733-0.45v0l5.476 21.092c0.302 1.162 0.662 2.018 1.081 2.568 0.421 0.557 0.938 0.883 1.551 0.979 0.615 0.103 1.381 0.077 2.298-0.075v0c0.143 0.225 0.27 0.493 0.379 0.805 0.111 0.318 0.219 0.68 0.324 1.085v0c-0.412 0.079-0.925 0.191-1.539 0.336-0.608 0.144-1.258 0.298-1.953 0.464-0.687 0.164-1.369 0.334-2.046 0.51v0c-1.029 0.267-2.119 0.557-3.271 0.87-1.158 0.315-2.029 0.576-2.613 0.785zM179.833 263.612v0c-0.405 0.105-0.78 0.188-1.126 0.25-0.345 0.061-0.692 0.077-1.04 0.046v0c-0.463-1.318-1.059-2.142-1.789-2.469-0.737-0.326-1.898-0.283-3.485 0.129v0l-2.838 0.737-0.504-1.942 2.838-0.737c1.62-0.421 2.676-0.925 3.168-1.513 0.492-0.588 0.589-1.524 0.292-2.808v0c0.318-0.196 0.652-0.368 1.003-0.516 0.351-0.148 0.716-0.271 1.095-0.369v0c0.149 0.684 0.318 1.416 0.506 2.197 0.19 0.787 0.38 1.545 0.57 2.275v0c0.203 0.783 0.422 1.598 0.656 2.445 0.234 0.846 0.452 1.605 0.654 2.275zM177.495 251.123v0c-0.304-0.842-0.745-1.6-1.324-2.271-0.578-0.672-1.384-1.14-2.415-1.403-1.032-0.264-2.385-0.178-4.058 0.256v0l-4.571 1.187 0.493-2.073c2.158-0.56 3.985-1.042 5.482-1.445 1.497-0.403 2.733-0.745 3.709-1.026 0.976-0.282 1.696-0.483 2.16-0.604v0c0.206 0.577 0.455 1.26 0.745 2.05 0.29 0.789 0.588 1.555 0.894 2.297 0.313 0.741 0.612 1.389 0.898 1.946v0c-0.196 0.256-0.466 0.472-0.81 0.646-0.338 0.173-0.739 0.319-1.204 0.44zM207.464 260.062v0c-2.434 1.368-4.864 2.006-7.291 1.915-2.433-0.088-4.696-0.811-6.789-2.168-2.089-1.351-3.816-3.241-5.181-5.669v0c-1.065-1.895-1.717-3.783-1.955-5.663-0.242-1.886-0.126-3.69 0.346-5.411 0.473-1.721 1.272-3.295 2.397-4.723 1.128-1.437 2.544-2.634 4.248-3.591v0c2.38-1.338 4.776-1.996 7.187-1.975 2.412 0.021 4.667 0.674 6.765 1.958 2.098 1.283 3.851 3.178 5.26 5.683v0c1.025 1.824 1.681 3.678 1.969 5.561 0.294 1.881 0.218 3.705-0.228 5.475-0.446 1.769-1.228 3.393-2.348 4.872-1.12 1.479-2.58 2.725-4.38 3.736zM207.046 257.701v0c1.507-0.847 2.547-1.998 3.122-3.454 0.571-1.462 0.72-3.107 0.447-4.937-0.279-1.826-0.944-3.675-1.996-5.546v0c-1.2-2.135-2.663-3.87-4.389-5.205-1.726-1.335-3.513-2.156-5.361-2.463-1.851-0.297-3.601 0.018-5.252 0.945v0c-1.363 0.766-2.355 1.851-2.975 3.254-0.62 1.403-0.822 3.003-0.606 4.801 0.21 1.802 0.861 3.674 1.954 5.618v0c0.86 1.531 1.869 2.899 3.027 4.105 1.158 1.206 2.406 2.161 3.745 2.864 1.339 0.703 2.708 1.074 4.108 1.114 1.403 0.046 2.795-0.32 4.176-1.096zM235.304 235.976l0.245-0.236c1.061-1.024 1.782-1.952 2.16-2.784 0.379-0.832 0.49-1.725 0.332-2.679-0.162-0.949-0.538-2.03-1.127-3.244v0c0.441-0.264 0.85-0.462 1.226-0.596 0.376-0.134 0.741-0.195 1.094-0.184v0c0.44 0.891 0.986 1.827 1.638 2.809 0.657 0.977 1.29 1.886 1.9 2.727v0c-0.419 0.366-0.969 0.877-1.65 1.534-0.686 0.662-1.424 1.364-2.214 2.107-0.794 0.747-1.572 1.487-2.332 2.221v0c-0.563 0.543-1.219 1.176-1.969 1.899-0.755 0.729-1.523 1.479-2.304 2.251-0.785 0.776-1.504 1.489-2.156 2.136-0.652 0.648-1.161 1.167-1.527 1.559v0c-0.29-0.301-0.547-0.587-0.77-0.858-0.213-0.271-0.369-0.516-0.467-0.736v0c0.5-0.559 0.817-1.069 0.951-1.533 0.139-0.458 0.071-0.964-0.205-1.517-0.276-0.543-0.803-1.218-1.579-2.022v0l-11.435-11.856c-0.7-0.726-1.288-1.217-1.763-1.472-0.476-0.256-0.943-0.32-1.401-0.193-0.454 0.132-0.971 0.441-1.552 0.925v0c-0.235-0.126-0.489-0.31-0.761-0.552-0.277-0.238-0.539-0.485-0.787-0.742v0c0.463-0.409 0.924-0.825 1.383-1.248 0.464-0.428 0.92-0.849 1.369-1.264 0.454-0.419 0.861-0.802 1.221-1.149v0c0.439-0.424 0.876-0.855 1.311-1.293 0.43-0.434 0.857-0.865 1.283-1.294 0.42-0.424 0.82-0.839 1.201-1.244v0c0.271 0.281 0.516 0.555 0.734 0.821 0.223 0.271 0.393 0.526 0.51 0.765v0c-0.485 0.544-0.807 1.045-0.965 1.504-0.154 0.463-0.102 0.947 0.155 1.451 0.258 0.504 0.746 1.129 1.465 1.874v0l11.35 11.767c0.738 0.765 1.379 1.291 1.921 1.578 0.548 0.291 1.095 0.325 1.643 0.102 0.547-0.213 1.171-0.658 1.872-1.334zM247.16 216.678l-13.812-9.728c-0.824-0.581-1.494-0.952-2.009-1.113-0.519-0.156-0.986-0.137-1.401 0.058-0.412 0.204-0.858 0.599-1.337 1.185v0c-0.271-0.056-0.559-0.171-0.865-0.345-0.296-0.175-0.604-0.375-0.924-0.6v0c0.331-0.422 0.673-0.872 1.028-1.353 0.355-0.48 0.727-0.985 1.118-1.515 0.39-0.53 0.753-1.034 1.089-1.511v0c0.352-0.499 0.699-1.005 1.044-1.518 0.34-0.507 0.675-1.006 1.003-1.495 0.325-0.485 0.635-0.962 0.933-1.432v0c0.32 0.225 0.612 0.448 0.876 0.667 0.27 0.224 0.485 0.443 0.646 0.656v0c-0.374 0.626-0.595 1.179-0.665 1.659-0.064 0.484 0.067 0.941 0.393 1.372 0.322 0.436 0.895 0.945 1.719 1.525v0l13.812 9.728c0.796 0.561 1.463 0.925 1.999 1.093 0.527 0.17 1.004 0.141 1.432-0.086 0.434-0.223 0.883-0.616 1.346-1.179v0c0.232 0.063 0.497 0.182 0.793 0.358 0.302 0.179 0.624 0.389 0.966 0.629v0c-0.495 0.608-1.013 1.283-1.553 2.027-0.54 0.744-1.067 1.48-1.581 2.209v0c-0.529 0.751-1.077 1.54-1.642 2.367-0.569 0.832-1.049 1.573-1.439 2.221v0c-0.342-0.241-0.644-0.479-0.906-0.714-0.253-0.237-0.448-0.454-0.586-0.651v0c0.39-0.648 0.608-1.203 0.656-1.665 0.05-0.452-0.092-0.9-0.425-1.344-0.343-0.443-0.912-0.944-1.708-1.505zM267.298 190.786v0c-1.053 2.585-2.558 4.598-4.516 6.037-1.959 1.446-4.18 2.289-6.663 2.529-2.476 0.243-5.004-0.161-7.583-1.212v0c-2.014-0.82-3.699-1.892-5.055-3.215-1.363-1.326-2.396-2.809-3.098-4.451-0.701-1.641-1.056-3.371-1.063-5.188-0.011-1.827 0.352-3.645 1.09-5.455v0c1.03-2.528 2.496-4.534 4.396-6.019 1.901-1.484 4.072-2.377 6.513-2.679 2.441-0.302 4.992 0.09 7.654 1.175v0c1.937 0.789 3.605 1.832 5.003 3.127 1.4 1.289 2.477 2.765 3.229 4.426 0.752 1.662 1.151 3.42 1.195 5.275 0.044 1.855-0.323 3.738-1.102 5.65zM265.5 189.199v0c0.652-1.601 0.75-3.15 0.294-4.647-0.463-1.5-1.371-2.88-2.723-4.142-1.355-1.256-3.026-2.288-5.015-3.099v0c-2.268-0.924-4.493-1.371-6.674-1.342-2.182 0.029-4.092 0.499-5.729 1.41-1.634 0.919-2.808 2.256-3.522 4.009v0c-0.59 1.448-0.691 2.914-0.304 4.398 0.388 1.484 1.226 2.862 2.515 4.135 1.286 1.279 2.961 2.34 5.025 3.181v0c1.626 0.663 3.268 1.105 4.925 1.329 1.657 0.223 3.228 0.193 4.714-0.091 1.486-0.283 2.788-0.845 3.908-1.685 1.126-0.837 1.988-1.99 2.586-3.456zM5.399 138.966c0-1.821 1.476-3.298 3.298-3.298 1.821 0 3.298 1.476 3.298 3.298 0 1.821-1.476 3.298-3.298 3.298-1.821 0-3.298-1.476-3.298-3.298zM264.415 138.966c0-1.821 1.476-3.298 3.298-3.298 1.821 0 3.298 1.476 3.298 3.298 0 1.821-1.476 3.298-3.298 3.298-1.821 0-3.298-1.476-3.298-3.298z" fill="#ffffff" data-fill-palette-color="primary"></path></svg></g></svg></g></svg></g></svg></g></svg><rect width="279.72" height="279.72" fill="none" stroke="none" visibility="hidden"></rect></g></svg></g></svg>